<?xml version="1.0" encoding="UTF-8" standalone="no"?>
<!DOCTYPE svg PUBLIC "-//W3C//DTD SVG 1.1//EN"
 "http://www.w3.org/Graphics/SVG/1.1/DTD/svg11.dtd">
<!-- Generated by graphviz version 15.0.0 (20260523.1842)
 -->
<!-- Title: puertaAb Pages: 1 -->
<svg width="247pt" height="28pt"
 viewBox="0.00 0.00 247.00 28.00" xmlns="http://www.w3.org/2000/svg" xmlns:xlink="http://www.w3.org/1999/xlink">
<g id="graph0" class="graph" transform="scale(1 1) rotate(0) translate(4 24)">
<title>puertaAb</title>
<!-- Node1 -->
<g id="Node000001" class="node">
<title>Node1</title>
<g id="a_Node000001"><a xlink:title="Consulta el estado lógico de la puerta.">
<polygon fill="#999999" stroke="#666666" points="239.25,-20 184.25,-20 184.25,0 239.25,0 239.25,-20"/>
<text xml:space="preserve" text-anchor="middle" x="211.75" y="-6.5" font-family="Helvetica,sans-Serif" font-size="10.00">puertaAb</text>
</a>
</g>
</g>
<!-- Node2 -->
<g id="Node000002" class="node">
<title>Node2</title>
<g id="a_Node000002"><a xlink:href="$group__tareas.html#ga9603b1c503abd2bd6f6e355fed914150" xlink:title="Tarea FreeRTOS de monitoreo de intrusos.">
<polygon fill="white" stroke="#666666" points="148.25,-20 76,-20 76,0 148.25,0 148.25,-20"/>
<text xml:space="preserve" text-anchor="middle" x="112.12" y="-6.5" font-family="Helvetica,sans-Serif" font-size="10.00">TaskIntrusos</text>
</a>
</g>
</g>
<!-- Node1&#45;&gt;Node2 -->
<g id="edge1_Node000001_Node000002" class="edge">
<title>Node1&#45;&gt;Node2</title>
<g id="a_edge1_Node000001_Node000002"><a xlink:title=" ">
<path fill="none" stroke="#63b8ff" d="M172.39,-10C164.6,-10 156.44,-10 148.75,-10"/>
<polygon fill="#63b8ff" stroke="#63b8ff" points="172.3,-13.5 182.3,-10 172.3,-6.5 172.3,-13.5"/>
</a>
</g>
</g>
<!-- Node3 -->
<g id="Node000003" class="node">
<title>Node3</title>
<g id="a_Node000003"><a xlink:href="$sistema__seguridad_8cpp.html#a4fc01d736fe50cf5b977f755b675f11d" xlink:title="Inicialización del sistema.">
<polygon fill="white" stroke="#666666" points="40,-20 0,-20 0,0 40,0 40,-20"/>
<text xml:space="preserve" text-anchor="middle" x="20" y="-6.5" font-family="Helvetica,sans-Serif" font-size="10.00">setup</text>
</a>
</g>
</g>
<!-- Node2&#45;&gt;Node3 -->
<g id="edge2_Node000002_Node000003" class="edge">
<title>Node2&#45;&gt;Node3</title>
<g id="a_edge2_Node000002_Node000003"><a xlink:title=" ">
<path fill="none" stroke="#63b8ff" d="M64.09,-10C55.67,-10 47.35,-10 40.3,-10"/>
<polygon fill="#63b8ff" stroke="#63b8ff" points="63.99,-13.5 73.99,-10 63.99,-6.5 63.99,-13.5"/>
</a>
</g>
</g>
</g>
</svg>
