<?xml version="1.0" encoding="UTF-8" standalone="no"?>
<!DOCTYPE svg PUBLIC "-//W3C//DTD SVG 1.1//EN"
 "http://www.w3.org/Graphics/SVG/1.1/DTD/svg11.dtd">
<!-- Generated by graphviz version 15.0.0 (20260523.1842)
 -->
<!-- Title: manejarAlarma Pages: 1 -->
<svg width="362pt" height="104pt"
 viewBox="0.00 0.00 362.00 104.00" xmlns="http://www.w3.org/2000/svg" xmlns:xlink="http://www.w3.org/1999/xlink">
<g id="graph0" class="graph" transform="scale(1 1) rotate(0) translate(4 100)">
<title>manejarAlarma</title>
<!-- Node1 -->
<g id="Node000001" class="node">
<title>Node1</title>
<g id="a_Node000001"><a xlink:title="Manejador del estado EST_ALARMA.">
<polygon fill="#999999" stroke="#666666" points="81.25,-39 0,-39 0,-19 81.25,-19 81.25,-39"/>
<text xml:space="preserve" text-anchor="middle" x="40.62" y="-25.5" font-family="Helvetica,sans-Serif" font-size="10.00">manejarAlarma</text>
</a>
</g>
</g>
<!-- Node2 -->
<g id="Node000002" class="node">
<title>Node2</title>
<g id="a_Node000002"><a xlink:href="$group__fsm.html#gaee03cd25b71f09567dcf074ff59c8046" xlink:title="Ejecuta la transición de la FSM al estado indicado.">
<polygon fill="white" stroke="#666666" points="176,-58 117.25,-58 117.25,-38 176,-38 176,-58"/>
<text xml:space="preserve" text-anchor="middle" x="146.62" y="-44.5" font-family="Helvetica,sans-Serif" font-size="10.00">irAEstado</text>
</a>
</g>
</g>
<!-- Node1&#45;&gt;Node2 -->
<g id="edge1_Node000001_Node000002" class="edge">
<title>Node1&#45;&gt;Node2</title>
<g id="a_edge1_Node000001_Node000002"><a xlink:title=" ">
<path fill="none" stroke="#63b8ff" d="M81.54,-36.29C89.46,-37.74 97.79,-39.26 105.72,-40.71"/>
<polygon fill="#63b8ff" stroke="#63b8ff" points="105,-44.14 115.47,-42.49 106.26,-37.25 105,-44.14"/>
</a>
</g>
</g>
<!-- Node6 -->
<g id="Node000006" class="node">
<title>Node6</title>
<g id="a_Node000006"><a xlink:href="$group__actuadores.html#ga2a424a53e71040ea1a466f4d0adf0b6a" xlink:title="Apaga todos los actuadores de señalización.">
<polygon fill="white" stroke="#666666" points="288.75,-20 212,-20 212,0 288.75,0 288.75,-20"/>
<text xml:space="preserve" text-anchor="middle" x="250.38" y="-6.5" font-family="Helvetica,sans-Serif" font-size="10.00">limpiarSalidas</text>
</a>
</g>
</g>
<!-- Node1&#45;&gt;Node6 -->
<g id="edge6_Node000001_Node000006" class="edge">
<title>Node1&#45;&gt;Node6</title>
<g id="a_edge6_Node000001_Node000006"><a xlink:title=" ">
<path fill="none" stroke="#63b8ff" d="M81.68,-25.34C115.51,-22.24 164.1,-17.8 200.27,-14.49"/>
<polygon fill="#63b8ff" stroke="#63b8ff" points="200.4,-17.99 210.03,-13.6 199.76,-11.02 200.4,-17.99"/>
</a>
</g>
</g>
<!-- Node3 -->
<g id="Node000003" class="node">
<title>Node3</title>
<g id="a_Node000003"><a xlink:href="$group__actuadores.html#gae1fd3f671724f825c66f4c23af9fd268" xlink:title="Abre la puerta girando el servo a 90°.">
<polygon fill="white" stroke="#666666" points="282,-96 218.75,-96 218.75,-76 282,-76 282,-96"/>
<text xml:space="preserve" text-anchor="middle" x="250.38" y="-82.5" font-family="Helvetica,sans-Serif" font-size="10.00">abrirPuerta</text>
</a>
</g>
</g>
<!-- Node2&#45;&gt;Node3 -->
<g id="edge2_Node000002_Node000003" class="edge">
<title>Node2&#45;&gt;Node3</title>
<g id="a_edge2_Node000002_Node000003"><a xlink:title=" ">
<path fill="none" stroke="#63b8ff" d="M175.7,-58.48C186.49,-62.51 199,-67.19 210.62,-71.52"/>
<polygon fill="#63b8ff" stroke="#63b8ff" points="209.38,-74.8 219.98,-75.02 211.83,-68.24 209.38,-74.8"/>
</a>
</g>
</g>
<!-- Node4 -->
<g id="Node000004" class="node">
<title>Node4</title>
<g id="a_Node000004"><a xlink:href="$group__hardware.html#ga9f11914e61e4c2bf68e9b8cc91db5628" xlink:title="Escribe dos líneas de texto en el LCD 16×2.">
<polygon fill="white" stroke="#666666" points="281.25,-58 219.5,-58 219.5,-38 281.25,-38 281.25,-58"/>
<text xml:space="preserve" text-anchor="middle" x="250.38" y="-44.5" font-family="Helvetica,sans-Serif" font-size="10.00">lcdEscribir</text>
</a>
</g>
</g>
<!-- Node2&#45;&gt;Node4 -->
<g id="edge3_Node000002_Node000004" class="edge">
<title>Node2&#45;&gt;Node4</title>
<g id="a_edge3_Node000002_Node000004"><a xlink:title=" ">
<path fill="none" stroke="#63b8ff" d="M176.24,-48C186.08,-48 197.31,-48 207.96,-48"/>
<polygon fill="#63b8ff" stroke="#63b8ff" points="207.69,-51.5 217.69,-48 207.69,-44.5 207.69,-51.5"/>
</a>
</g>
</g>
<!-- Node2&#45;&gt;Node6 -->
<g id="edge5_Node000002_Node000006" class="edge">
<title>Node2&#45;&gt;Node6</title>
<g id="a_edge5_Node000002_Node000006"><a xlink:title=" ">
<path fill="none" stroke="#63b8ff" d="M175.7,-37.52C186.49,-33.49 199,-28.81 210.62,-24.48"/>
<polygon fill="#63b8ff" stroke="#63b8ff" points="211.83,-27.76 219.98,-20.98 209.38,-21.2 211.83,-27.76"/>
</a>
</g>
</g>
<!-- Node5 -->
<g id="Node000005" class="node">
<title>Node5</title>
<g id="a_Node000005"><a xlink:href="$group__hardware.html#gaf97afdf00af0e116e9b5957f6a470fc2" xlink:title="Objeto LCD de 16×2. Pines: RS=12, EN=11, D4=5, D5=4, D6=3, D7=2.">
<polygon fill="white" stroke="#666666" points="353.55,-58 324.75,-58 324.75,-38 353.55,-38 353.55,-58"/>
<text xml:space="preserve" text-anchor="middle" x="339.15" y="-44.5" font-family="Helvetica,sans-Serif" font-size="10.00">lcd</text>
</a>
</g>
</g>
<!-- Node4&#45;&gt;Node5 -->
<g id="edge4_Node000004_Node000005" class="edge">
<title>Node4&#45;&gt;Node5</title>
<g id="a_edge4_Node000004_Node000005"><a xlink:title=" ">
<path fill="none" stroke="#63b8ff" d="M281.72,-48C292.03,-48 303.43,-48 313.26,-48"/>
<polygon fill="#63b8ff" stroke="#63b8ff" points="313.17,-51.5 323.17,-48 313.17,-44.5 313.17,-51.5"/>
</a>
</g>
</g>
</g>
</svg>
