<?xml version="1.0" encoding="UTF-8" standalone="no"?>
<!DOCTYPE svg PUBLIC "-//W3C//DTD SVG 1.1//EN"
 "http://www.w3.org/Graphics/SVG/1.1/DTD/svg11.dtd">
<!-- Generated by graphviz version 15.0.0 (20260523.1842)
 -->
<!-- Title: leerTemp Pages: 1 -->
<svg width="256pt" height="28pt"
 viewBox="0.00 0.00 256.00 28.00" xmlns="http://www.w3.org/2000/svg" xmlns:xlink="http://www.w3.org/1999/xlink">
<g id="graph0" class="graph" transform="scale(1 1) rotate(0) translate(4 24)">
<title>leerTemp</title>
<!-- Node1 -->
<g id="Node000001" class="node">
<title>Node1</title>
<g id="a_Node000001"><a xlink:title="Lee la temperatura con el termistor NTC del KY&#45;013.">
<polygon fill="#999999" stroke="#666666" points="248.25,-20 192.5,-20 192.5,0 248.25,0 248.25,-20"/>
<text xml:space="preserve" text-anchor="middle" x="220.38" y="-6.5" font-family="Helvetica,sans-Serif" font-size="10.00">leerTemp</text>
</a>
</g>
</g>
<!-- Node2 -->
<g id="Node000002" class="node">
<title>Node2</title>
<g id="a_Node000002"><a xlink:href="$group__tareas.html#ga68f0ae52239a006625901567e8dfe5a5" xlink:title="Tarea FreeRTOS de monitoreo ambiental (temperatura y luz).">
<polygon fill="white" stroke="#666666" points="156.5,-20 76,-20 76,0 156.5,0 156.5,-20"/>
<text xml:space="preserve" text-anchor="middle" x="116.25" y="-6.5" font-family="Helvetica,sans-Serif" font-size="10.00">TaskAmbiental</text>
</a>
</g>
</g>
<!-- Node1&#45;&gt;Node2 -->
<g id="edge1_Node000001_Node000002" class="edge">
<title>Node1&#45;&gt;Node2</title>
<g id="a_edge1_Node000001_Node000002"><a xlink:title=" ">
<path fill="none" stroke="#63b8ff" d="M180.66,-10C172.91,-10 164.76,-10 156.98,-10"/>
<polygon fill="#63b8ff" stroke="#63b8ff" points="180.49,-13.5 190.49,-10 180.49,-6.5 180.49,-13.5"/>
</a>
</g>
</g>
<!-- Node3 -->
<g id="Node000003" class="node">
<title>Node3</title>
<g id="a_Node000003"><a xlink:href="$sistema__seguridad_8cpp.html#a4fc01d736fe50cf5b977f755b675f11d" xlink:title="Inicialización del sistema.">
<polygon fill="white" stroke="#666666" points="40,-20 0,-20 0,0 40,0 40,-20"/>
<text xml:space="preserve" text-anchor="middle" x="20" y="-6.5" font-family="Helvetica,sans-Serif" font-size="10.00">setup</text>
</a>
</g>
</g>
<!-- Node2&#45;&gt;Node3 -->
<g id="edge2_Node000002_Node000003" class="edge">
<title>Node2&#45;&gt;Node3</title>
<g id="a_edge2_Node000002_Node000003"><a xlink:title=" ">
<path fill="none" stroke="#63b8ff" d="M64.24,-10C55.63,-10 47.2,-10 40.1,-10"/>
<polygon fill="#63b8ff" stroke="#63b8ff" points="64.04,-13.5 74.04,-10 64.04,-6.5 64.04,-13.5"/>
</a>
</g>
</g>
</g>
</svg>
